<svg height="57.609375" version="1.1" width="277.84375" xmlns="http://www.w3.org/2000/svg" xmlns:xlink="http://www.w3.org/1999/xlink" style="overflow: hidden; position: relative; left: -0.6px;" viewBox="163.578125 268.03999999999996 277.84375 57.609375" preserveAspectRatio="xMinYMin" id="main_svg"><desc style="-webkit-tap-highlight-color: rgba(0, 0, 0, 0);">Created with Logotizer</desc><defs style="-webkit-tap-highlight-color: rgba(0, 0, 0, 0);"></defs><path fill="#39b214" stroke="none" d="M-106.23,-17.76Q-106.23,-9.17,-110.43,-4.18Q-114.63,0.82,-121.59,0.82Q-127.83,0.82,-131.94,-3.79Q-136.04,-8.4,-136.04,-16.7Q-136.04,-25.58,-131.89,-30.24Q-127.74,-34.9,-120.78,-34.9Q-114.35,-34.9,-110.29,-30.67Q-106.23,-26.45,-106.23,-17.76M-113,-14.5Q-113,-23.42,-114.99,-27.6Q-116.99,-31.78,-121.59,-31.78Q-125.48,-31.78,-127.38,-28.44Q-129.27,-25.1,-129.27,-19.63Q-129.27,-10.94,-127.07,-6.62Q-124.86,-2.3,-120.78,-2.3Q-116.84,-2.3,-114.92,-5.62Q-113,-8.93,-113,-14.5ZM-80.84,-1.63Q-80.84,-0.91,-81.42,-0.46Q-81.99,0,-82.71,0L-88.81,0Q-90.68,0,-90.68,-1.63Q-90.68,-2.16,-90.47,-2.42Q-90.25,-2.69,-89.48,-2.69Q-88.71,-2.69,-88.71,-4.18L-88.71,-10.85Q-89.72,-9.98,-91.59,-9.19Q-93.47,-8.4,-95.24,-8.4Q-98.55,-8.4,-100.14,-9.82Q-101.72,-11.23,-101.72,-14.3L-101.72,-19.1Q-101.72,-20.59,-102.54,-20.59Q-103.26,-20.59,-103.47,-20.86Q-103.69,-21.12,-103.69,-21.65Q-103.69,-23.28,-101.39,-23.28L-96.25,-23.28Q-93.9,-23.28,-93.9,-21.65Q-93.9,-20.59,-95.1,-20.59Q-95.82,-20.59,-95.82,-19.1L-95.82,-15.7Q-95.82,-13.54,-95.27,-12.62Q-94.71,-11.71,-93.13,-11.71Q-91.31,-11.71,-90.01,-12.79Q-88.71,-13.87,-88.71,-15.12L-88.71,-19.1Q-88.71,-20.59,-89.48,-20.59Q-90.25,-20.59,-90.47,-20.86Q-90.68,-21.12,-90.68,-21.65Q-90.68,-23.28,-88.33,-23.28L-83.19,-23.28Q-80.84,-23.28,-80.84,-21.65Q-80.84,-20.59,-82.09,-20.59Q-82.76,-20.59,-82.76,-19.1L-82.76,-4.18Q-82.76,-2.69,-82.09,-2.69Q-80.84,-2.69,-80.84,-1.63ZM-55.21,-2.21Q-55.21,-1.01,-56.15,-0.31Q-57.08,0.38,-58.71,0.38Q-60.78,0.38,-62.31,-1.68L-68.94,-10.8L-69.61,-10.8L-69.61,-4.18Q-69.61,-2.69,-68.94,-2.69Q-67.69,-2.69,-67.69,-1.63Q-67.69,0,-70.04,0L-75.18,0Q-77.53,0,-77.53,-1.63Q-77.53,-2.16,-77.31,-2.42Q-77.1,-2.69,-76.38,-2.69Q-75.56,-2.69,-75.56,-4.18L-75.56,-19.1Q-75.56,-20.59,-76.38,-20.59Q-77.1,-20.59,-77.31,-20.86Q-77.53,-21.12,-77.53,-21.65Q-77.53,-23.28,-75.18,-23.28L-70.04,-23.28Q-67.69,-23.28,-67.69,-21.65Q-67.69,-20.59,-68.94,-20.59Q-69.61,-20.59,-69.61,-19.1L-69.61,-13.15L-68.94,-13.15Q-66.97,-13.63,-64.83,-15.67Q-62.7,-17.71,-62.7,-19.49Q-62.7,-20.5,-63.13,-21.02Q-63.56,-21.55,-63.56,-21.94Q-63.56,-22.56,-63.23,-22.87Q-62.89,-23.18,-62.51,-23.23Q-62.12,-23.28,-61.31,-23.28L-58.28,-23.28Q-57.47,-23.28,-56.91,-22.92Q-56.36,-22.56,-56.36,-21.94Q-56.36,-21.74,-56.46,-21.48Q-56.55,-21.22,-56.79,-20.88Q-57.03,-20.54,-57.25,-20.26Q-57.47,-19.97,-57.85,-19.54Q-58.23,-19.1,-58.47,-18.84Q-58.71,-18.58,-59.17,-18.1Q-59.63,-17.62,-59.82,-17.42Q-62.46,-14.54,-64.04,-13.15Q-62.12,-11.14,-58.71,-6.48Q-57.95,-5.42,-57.18,-4.63Q-56.41,-3.84,-56.05,-3.55Q-55.69,-3.26,-55.45,-2.95Q-55.21,-2.64,-55.21,-2.21ZM-29.1,-1.63Q-29.1,0,-31.45,0L-36.59,0Q-38.94,0,-38.94,-1.63Q-38.94,-2.16,-38.72,-2.42Q-38.51,-2.69,-37.79,-2.69Q-36.97,-2.69,-36.97,-4.18L-36.97,-15.17L-45.27,-4.13L-45.27,-3.7Q-45.27,-2.69,-44.6,-2.69Q-43.35,-2.69,-43.35,-1.63Q-43.35,0,-45.71,0L-50.84,0Q-53.19,0,-53.19,-1.63Q-53.19,-2.16,-52.98,-2.42Q-52.76,-2.69,-52.04,-2.69Q-51.23,-2.69,-51.23,-4.18L-51.23,-18.82Q-51.23,-20.5,-52.04,-20.5Q-53.19,-20.5,-53.19,-21.65Q-53.19,-23.28,-50.84,-23.28L-45.71,-23.28Q-43.35,-23.28,-43.35,-21.65Q-43.35,-20.5,-44.6,-20.5Q-45.27,-20.5,-45.27,-18.86L-45.27,-8.16L-36.97,-19.25L-36.97,-19.68Q-36.97,-20.59,-37.79,-20.59Q-38.51,-20.59,-38.72,-20.86Q-38.94,-21.12,-38.94,-21.65Q-38.94,-22.37,-38.31,-22.82Q-37.69,-23.28,-36.59,-23.28L-31.45,-23.28Q-29.1,-23.28,-29.1,-21.65Q-29.1,-20.59,-30.3,-20.59Q-31.02,-20.59,-31.02,-19.1L-31.02,-4.18Q-31.02,-2.69,-30.3,-2.69Q-29.1,-2.69,-29.1,-1.63ZM5.08,-1.58Q5.08,-0.82,4.31,-0.41Q3.54,0,2.63,0L-3.13,0Q-4.09,0,-4.86,-0.41Q-5.63,-0.82,-5.63,-1.58Q-5.63,-2.16,-5.39,-2.47Q-5.15,-2.78,-4.38,-2.78Q-3.47,-2.78,-3.47,-4.56L-3.47,-16.32L-15.95,-16.32L-15.95,-4.56Q-15.95,-2.78,-15.08,-2.78Q-14.31,-2.78,-14.05,-2.47Q-13.79,-2.16,-13.79,-1.58Q-13.79,-0.82,-14.55,-0.41Q-15.32,0,-16.28,0L-22.04,0Q-23,0,-23.77,-0.41Q-24.54,-0.82,-24.54,-1.58Q-24.54,-2.78,-23.24,-2.78Q-22.91,-2.78,-22.62,-3.29Q-22.33,-3.79,-22.33,-4.56L-22.33,-29.33Q-22.33,-31.15,-23.24,-31.15Q-24.54,-31.15,-24.54,-32.35Q-24.54,-33.17,-23.77,-33.58Q-23,-33.98,-22.04,-33.98L-16.28,-33.98Q-15.37,-33.98,-14.58,-33.55Q-13.79,-33.12,-13.79,-32.35Q-13.79,-31.15,-15.08,-31.15Q-15.95,-31.15,-15.95,-29.33L-15.95,-19.25L-3.47,-19.25L-3.47,-29.33Q-3.47,-31.15,-4.38,-31.15Q-5.63,-31.15,-5.63,-32.35Q-5.63,-33.17,-4.86,-33.58Q-4.09,-33.98,-3.13,-33.98L2.63,-33.98Q3.54,-33.98,4.31,-33.55Q5.08,-33.12,5.08,-32.35Q5.08,-31.15,3.78,-31.15Q2.92,-31.15,2.92,-29.33L2.92,-4.56Q2.92,-3.84,3.18,-3.31Q3.45,-2.78,3.78,-2.78Q4.55,-2.78,4.81,-2.47Q5.08,-2.16,5.08,-1.58ZM28.84,-1.54Q28.84,-0.72,27.97,-0.14Q27.11,0.43,25.77,0.43Q25.05,0.43,24.81,0.43Q24.57,0.43,23.75,0.26Q22.93,0.1,22.5,-0.24Q22.07,-0.58,21.59,-1.32Q21.11,-2.06,20.92,-3.12Q18.37,0.62,14.1,0.62Q11.85,0.62,10.26,-0.62Q8.68,-1.87,8.68,-4.9Q8.68,-7.54,10.17,-9.12Q11.65,-10.7,15.25,-12.05Q15.49,-12.14,16.24,-12.43Q16.98,-12.72,17.34,-12.86Q17.7,-13.01,18.37,-13.3Q19.05,-13.58,19.41,-13.82Q19.77,-14.06,20.15,-14.35Q20.53,-14.64,20.73,-14.95Q20.92,-15.26,20.92,-15.55L20.92,-17.71Q20.92,-20.98,19.05,-20.98Q17.7,-20.98,16.6,-20.5Q14.73,-19.49,13.72,-17.18Q13.67,-17.04,13.53,-16.73Q13.38,-16.42,13.33,-16.3Q13.29,-16.18,13.19,-15.94Q13.09,-15.7,13.02,-15.6Q12.95,-15.5,12.83,-15.34Q12.71,-15.17,12.64,-15.1Q12.57,-15.02,12.42,-14.95Q12.28,-14.88,12.13,-14.86Q11.99,-14.83,11.85,-14.83Q10.17,-14.83,10.17,-18.82Q10.17,-21.26,11.8,-22.13Q12.66,-22.56,16.6,-23.28Q19.57,-23.81,21.25,-23.81Q26.87,-23.81,26.87,-18.29L26.87,-4.32Q26.87,-2.69,27.59,-2.45Q28.84,-2.16,28.84,-1.54M20.92,-7.63L20.92,-12.05L19.48,-11.38Q16.79,-10.18,15.73,-8.98Q14.68,-7.78,14.68,-5.81Q14.68,-4.66,15.35,-3.89Q16.02,-3.12,17.08,-3.12Q18.52,-3.12,19.72,-4.58Q20.92,-6.05,20.92,-7.63ZM62.92,-17.76Q62.92,-9.17,58.72,-4.18Q54.52,0.82,47.56,0.82Q41.32,0.82,37.21,-3.79Q33.11,-8.4,33.11,-16.7Q33.11,-25.58,37.26,-30.24Q41.41,-34.9,48.37,-34.9Q54.81,-34.9,58.86,-30.67Q62.92,-26.45,62.92,-17.76M56.15,-14.5Q56.15,-23.42,54.16,-27.6Q52.17,-31.78,47.56,-31.78Q43.67,-31.78,41.77,-28.44Q39.88,-25.1,39.88,-19.63Q39.88,-10.94,42.09,-6.62Q44.29,-2.3,48.37,-2.3Q52.31,-2.3,54.23,-5.62Q56.15,-8.93,56.15,-14.5ZM88.31,-1.63Q88.31,-0.91,87.73,-0.46Q87.16,0,86.44,0L80.34,0Q78.47,0,78.47,-1.63Q78.47,-2.16,78.69,-2.42Q78.9,-2.69,79.67,-2.69Q80.44,-2.69,80.44,-4.18L80.44,-10.85Q79.43,-9.98,77.56,-9.19Q75.69,-8.4,73.91,-8.4Q70.6,-8.4,69.01,-9.82Q67.43,-11.23,67.43,-14.3L67.43,-19.1Q67.43,-20.59,66.61,-20.59Q65.89,-20.59,65.68,-20.86Q65.46,-21.12,65.46,-21.65Q65.46,-23.28,67.77,-23.28L72.9,-23.28Q75.25,-23.28,75.25,-21.65Q75.25,-20.59,74.05,-20.59Q73.33,-20.59,73.33,-19.1L73.33,-15.7Q73.33,-13.54,73.89,-12.62Q74.44,-11.71,76.02,-11.71Q77.85,-11.71,79.14,-12.79Q80.44,-13.87,80.44,-15.12L80.44,-19.1Q80.44,-20.59,79.67,-20.59Q78.9,-20.59,78.69,-20.86Q78.47,-21.12,78.47,-21.65Q78.47,-23.28,80.82,-23.28L85.96,-23.28Q88.31,-23.28,88.31,-21.65Q88.31,-20.59,87.06,-20.59Q86.39,-20.59,86.39,-19.1L86.39,-4.18Q86.39,-2.69,87.06,-2.69Q88.31,-2.69,88.31,-1.63ZM113.94,-2.21Q113.94,-1.01,113.01,-0.31Q112.07,0.38,110.44,0.38Q108.37,0.38,106.84,-1.68L100.21,-10.8L99.54,-10.8L99.54,-4.18Q99.54,-2.69,100.21,-2.69Q101.46,-2.69,101.46,-1.63Q101.46,0,99.11,0L93.97,0Q91.62,0,91.62,-1.63Q91.62,-2.16,91.84,-2.42Q92.05,-2.69,92.77,-2.69Q93.59,-2.69,93.59,-4.18L93.59,-19.1Q93.59,-20.59,92.77,-20.59Q92.05,-20.59,91.84,-20.86Q91.62,-21.12,91.62,-21.65Q91.62,-23.28,93.97,-23.28L99.11,-23.28Q101.46,-23.28,101.46,-21.65Q101.46,-20.59,100.21,-20.59Q99.54,-20.59,99.54,-19.1L99.54,-13.15L100.21,-13.15Q102.18,-13.63,104.32,-15.67Q106.45,-17.71,106.45,-19.49Q106.45,-20.5,106.02,-21.02Q105.59,-21.55,105.59,-21.94Q105.59,-22.56,105.93,-22.87Q106.26,-23.18,106.65,-23.23Q107.03,-23.28,107.85,-23.28L110.87,-23.28Q111.69,-23.28,112.24,-22.92Q112.79,-22.56,112.79,-21.94Q112.79,-21.74,112.69,-21.48Q112.6,-21.22,112.36,-20.88Q112.12,-20.54,111.9,-20.26Q111.69,-19.97,111.3,-19.54Q110.92,-19.1,110.68,-18.84Q110.44,-18.58,109.98,-18.1Q109.53,-17.62,109.33,-17.42Q106.69,-14.54,105.11,-13.15Q107.03,-11.14,110.44,-6.48Q111.21,-5.42,111.97,-4.63Q112.74,-3.84,113.1,-3.55Q113.46,-3.26,113.7,-2.95Q113.94,-2.64,113.94,-2.21ZM137.7,-12Q137.7,-6.34,134.58,-2.9Q131.46,0.53,126.81,0.53Q124.31,0.53,122.34,-0.19Q120.37,-0.91,119.15,-2.04Q117.93,-3.17,117.13,-4.75Q116.34,-6.34,116.03,-7.97Q115.72,-9.6,115.72,-11.38Q115.72,-17.18,118.69,-20.54Q121.67,-23.9,126.57,-23.9Q129.54,-23.9,131.75,-22.9Q133.96,-21.89,135.23,-20.16Q136.5,-18.43,137.1,-16.39Q137.7,-14.35,137.7,-12M131.32,-10.18Q131.32,-21.31,126.66,-21.46Q125.17,-21.46,124.21,-20.81Q123.25,-20.16,122.82,-18.89Q122.39,-17.62,122.22,-16.3Q122.05,-14.98,122.05,-13.1Q122.05,-1.92,126.66,-1.92Q131.32,-1.92,131.32,-10.18Z" transform="matrix(1,0,0,1,302.5,312.04)" style="-webkit-tap-highlight-color: rgba(0, 0, 0, 0);" stroke-width="1"></path></svg>