<svg width="16" height="32" viewBox="0 0 16 32" fill="none" xmlns="http://www.w3.org/2000/svg">
<path d="M13.5636 0H2.42183C2.10284 0.000961587 1.78716 0.0652681 1.49281 0.189248C1.19846 0.313228 0.931216 0.494453 0.706329 0.722575C0.481443 0.950698 0.303319 1.22125 0.182129 1.51879C0.0609386 1.81632 -0.00094537 2.13502 1.11296e-05 2.45667V29.5287C-0.00193598 30.1796 0.251671 30.8049 0.70544 31.268C1.15921 31.731 1.77626 31.9942 2.42183 32H13.5636C14.2111 31.9961 14.8308 31.734 15.2873 31.271C15.7438 30.808 16 30.1816 16 29.5287V2.45667C15.9981 1.80571 15.7408 1.18197 15.2843 0.721678C14.8278 0.261382 14.2092 0.0019345 13.5636 0ZM6.9091 1.83333H9.09092V2.2H6.9091V1.83333ZM8.00001 31.45C7.74829 31.45 7.50222 31.3747 7.29292 31.2337C7.08362 31.0927 6.9205 30.8923 6.82417 30.6578C6.72784 30.4233 6.70263 30.1652 6.75174 29.9163C6.80085 29.6674 6.92206 29.4387 7.10006 29.2592C7.27805 29.0797 7.50483 28.9575 7.75172 28.908C7.9986 28.8585 8.2545 28.8839 8.48706 28.981C8.71962 29.0782 8.9184 29.2426 9.05825 29.4537C9.1981 29.6647 9.27274 29.9128 9.27274 30.1667C9.27274 30.507 9.13865 30.8335 8.89997 31.0741C8.66128 31.3148 8.33756 31.45 8.00001 31.45ZM15.2727 28.3333H0.727285V3.66667H15.2727V28.3333ZM8.00001 30.9C7.85617 30.9 7.71556 30.857 7.59596 30.7764C7.47636 30.6958 7.38315 30.5813 7.3281 30.4473C7.27305 30.3133 7.25865 30.1659 7.28671 30.0236C7.31478 29.8813 7.38404 29.7507 7.48575 29.6481C7.58746 29.5456 7.71705 29.4757 7.85813 29.4474C7.9992 29.4191 8.14544 29.4337 8.27833 29.4892C8.41122 29.5447 8.5248 29.6387 8.60472 29.7593C8.68463 29.8798 8.72728 30.0216 8.72728 30.1667C8.72728 30.3612 8.65066 30.5477 8.51427 30.6852C8.37788 30.8227 8.1929 30.9 8.00001 30.9Z" fill="#37474F"/>
</svg>
